<?xml version="1.0" encoding="utf-8"?>
<!-- Generator: Adobe Illustrator 19.0.0, SVG Export Plug-In . SVG Version: 6.00 Build 0)  -->
<svg version="1.1" id="Lager_1" xmlns="http://www.w3.org/2000/svg" xmlns:xlink="http://www.w3.org/1999/xlink" x="0px" y="0px"
	 viewBox="0 0 500 172.2" style="enable-background:new 0 0 500 172.2;" xml:space="preserve">
<style type="text/css">
	.st0{fill:#BF0D0D;}
	.st1{fill:#1D1D1B;}
</style>
<g id="XMLID_57_">
	<g id="XMLID_118_">
		<g id="XMLID_129_">
			<path id="XMLID_130_" class="st0" d="M494.7,80.4h-17.5l-36,38.1V80.4h-14.1v88.3h14.1v-40.3l39.4,40.3h17.7v-0.9l-44-44.8
				l40.5-42.1V80.4z M404.9,80.4h-14v88.3h14V80.4z M309.1,93.9h19.4c6.6,0,12.3,1.5,17,4.4c4.7,2.9,8,6.6,10,11
				c2,4.4,3.1,9.2,3.3,14.4c0.2,8.6-2.3,16-7.4,22.1c-5.1,6.2-12.7,9.3-22.8,9.3h-19.4V93.9z M295.1,80.4v88.3h33.4
				c7.4,0,14-1.3,19.9-3.8c5.9-2.6,10.6-6,14.1-10.3c3.5-4.3,6.1-9.1,7.9-14.3c1.8-5.3,2.6-10.7,2.4-16.5c-0.1-5.6-1.1-11-2.9-16
				c-1.8-5-4.5-9.7-8-13.8c-3.5-4.2-8.1-7.5-13.9-9.9c-5.8-2.4-12.3-3.7-19.5-3.7H295.1z"/>
		</g>
		<g id="XMLID_119_">
			<path id="XMLID_120_" class="st0" d="M500,170.5h-20.1L443,132.8v37.7h-17.6V78.7H443v35.5l33.5-35.5h20v2.9l-39.8,41.4
				l43.4,44.1V170.5z M481.3,167H495l-43.2-43.9l39.3-40.9h-13.2l-38.5,40.7V82.2h-10.7V167h10.7v-42.8L481.3,167z M406.6,170.5
				h-17.5V78.7h17.5V170.5z M392.6,167h10.5V82.2h-10.5V167z M328.6,170.5h-35.2V78.7h35.2c7.4,0,14.2,1.3,20.2,3.8
				c6,2.5,10.9,6,14.5,10.4c3.6,4.3,6.4,9.1,8.3,14.3c1.9,5.2,2.9,10.8,3,16.6c0.2,5.9-0.7,11.6-2.5,17c-1.8,5.4-4.6,10.4-8.2,14.9
				c-3.7,4.5-8.6,8.1-14.7,10.8C343.1,169.2,336.2,170.5,328.6,170.5z M296.9,167h31.7c7.1,0,13.6-1.2,19.2-3.7
				c5.6-2.4,10.1-5.7,13.4-9.8c3.3-4.1,5.9-8.7,7.6-13.8c1.7-5,2.5-10.4,2.3-15.9c-0.1-5.4-1-10.6-2.8-15.5
				c-1.8-4.8-4.4-9.3-7.7-13.3c-3.3-3.9-7.7-7.1-13.2-9.4c-5.5-2.3-11.9-3.5-18.8-3.5h-31.7V167z M328.6,156.9h-21.2V92.2h21.2
				c6.9,0,13,1.6,17.9,4.7c4.9,3.1,8.5,7.1,10.7,11.7c2.1,4.6,3.3,9.6,3.4,15.1c0.2,9-2.5,16.8-7.8,23.3
				C347.3,153.6,339.2,156.9,328.6,156.9z M310.9,153.4h17.7c9.5,0,16.7-2.9,21.5-8.6c4.8-5.8,7.2-12.9,7-21
				c-0.2-4.9-1.2-9.6-3.1-13.7c-1.9-4-5-7.5-9.4-10.2c-4.4-2.8-9.8-4.1-16-4.1h-17.7V153.4z"/>
		</g>
	</g>
	<g id="XMLID_116_">
		<rect id="XMLID_43_" x="257.5" y="80.4" class="st0" width="14" height="88.3"/>
	</g>
	<g id="XMLID_112_">
		<path id="XMLID_113_" class="st0" d="M273.3,170.5h-17.5V78.7h17.5V170.5z M259.3,167h10.5V82.2h-10.5V167z"/>
	</g>
	<path id="XMLID_107_" class="st0" d="M201.3,93.3c5.5,0,9.6,1.6,12.5,4.9c2.9,3.2,4.3,7,4.3,11.4c0,4.5-1.4,8.2-4.3,11.2
		c-2.9,3-7.1,4.5-12.6,4.5h-26.9V93.3H201.3z M234.8,166.3l-26.4-29.4c8.2-1.2,14.2-4.3,18.1-9.4c3.9-5.1,5.9-11.1,5.9-18.1
		c0-7.9-2.8-14.7-8.3-20.4c-5.5-5.7-13.1-8.5-22.9-8.5c-4.5,0-11.4,0-20.6-0.1c-9.2,0-16-0.1-20.6-0.1v88.5h14.1v-30.5h18.7
		l26.9,30.5h16.5L234.8,166.3z M129,80.6v51.6c0,8.2-2.3,14.6-6.8,19.1c-4.5,4.5-10.4,6.5-17.7,6.1c-6.7-0.3-12.2-2.6-16.3-6.9
		c-4.1-4.4-6.2-10.5-6.2-18.3V80.6h-14v51.6c0,11.9,3.5,21.2,10.4,27.9c6.9,6.6,15.6,10.1,26.1,10.3c11.2,0.4,20.4-2.7,27.6-9.4
		s10.9-16.3,10.9-28.8V80.6H129z M2.5,169.1c3.5,0.9,7.2,1.3,11.3,1.3c11.5,0,20.7-3.5,27.6-10.6s10.3-16.3,10.3-27.6V80.4H9.1v13.1
		h28.4v38.6c0,7.5-2.1,13.5-6.2,18.1c-4.2,4.6-10,6.9-17.5,6.9c-1.8,0-3.6-0.1-5.2-0.4L2.5,169.1z"/>
	<g id="XMLID_97_">
		<path id="XMLID_98_" class="st0" d="M106.5,172.2c-0.7,0-1.3,0-2,0c-10.8-0.3-20-3.9-27.2-10.8c-7.3-7-10.9-16.8-10.9-29.1V78.8
			h17.5v53.4c0,7.3,1.9,13.1,5.7,17.1c3.8,4.1,8.8,6.2,15.1,6.4c6.8,0.4,12.2-1.4,16.4-5.6c4.2-4.1,6.3-10.2,6.3-17.9V78.8h17.5
			v53.4c0,13-3.8,23.1-11.4,30.1C126.2,168.9,117.2,172.2,106.5,172.2z M69.8,82.3v49.9c0,11.4,3.3,20.4,9.9,26.6
			c6.6,6.3,15,9.6,24.9,9.9c10.7,0.4,19.6-2.6,26.4-8.9c6.8-6.3,10.3-15.6,10.3-27.6V82.3h-10.5v49.9c0,8.7-2.5,15.5-7.3,20.4
			c-4.9,4.8-11.3,7.1-19,6.6c-7.1-0.3-13-2.8-17.4-7.5c-4.4-4.7-6.7-11.2-6.7-19.5V82.3H69.8z M13.8,172.2c-4.1,0-8.1-0.5-11.7-1.3
			L0,170.3l7.6-15.4l1.3,0.2c1.5,0.2,3.2,0.3,5,0.3c7,0,12.3-2.1,16.2-6.3c3.8-4.2,5.8-9.9,5.8-16.9V95.3H7.4V78.7h46v53.5
			c0,11.8-3.6,21.5-10.8,28.8C35.4,168.4,25.7,172.2,13.8,172.2z M5.1,167.9c2.7,0.5,5.7,0.8,8.7,0.8c11,0,19.8-3.4,26.3-10.1
			c6.5-6.7,9.8-15.6,9.8-26.4v-50H10.8v9.6h28.4v40.4c0,7.9-2.3,14.4-6.7,19.3c-4.5,4.9-10.8,7.4-18.8,7.4c-1.5,0-2.9-0.1-4.2-0.2
			L5.1,167.9z M239.4,170.5H219L192.2,140H176v30.5h-17.6V78.6h1.7c4.5,0,11.4,0,20.6,0.1c9.2,0,16,0.1,20.6,0.1
			c10.2,0,18.3,3,24.2,9c5.8,6,8.8,13.3,8.8,21.6c0,7.3-2.1,13.8-6.2,19.2c-3.7,4.8-9.1,7.9-16.1,9.5l24.5,27.4L239.4,170.5z
			 M220.6,167h12.6L205,135.6l3.2-0.5c7.7-1.1,13.4-4,17-8.7c3.7-4.8,5.5-10.5,5.5-17c0-7.5-2.5-13.8-7.8-19.2
			c-5.1-5.3-12.4-8-21.7-8c-4.5,0-11.4,0-20.6-0.1c-8.1,0-14.3-0.1-18.8-0.1v85h10.7v-30.5h21.2L220.6,167z M201.1,127.1h-28.6V91.6
			h28.7c6,0,10.6,1.8,13.8,5.4c3.1,3.6,4.7,7.8,4.7,12.6c0,4.9-1.6,9.1-4.8,12.4C211.8,125.4,207.2,127.1,201.1,127.1z M176,123.6
			h25.1c5,0,8.8-1.3,11.4-4c2.6-2.7,3.8-6,3.8-10c0-4-1.3-7.3-3.9-10.3c-2.5-2.9-6.2-4.3-11.2-4.3H176V123.6z"/>
	</g>
	<g id="XMLID_86_">
		<g id="XMLID_87_">
			<path id="XMLID_88_" class="st1" d="M300.1,9.6c-3.4-5.4-9.3-8.1-17.8-8.1c-2.3,0-4.5,0.3-6.6,0.8c-2.1,0.5-4.1,1.3-5.9,2.4
				c-1.8,1-3.3,2.5-4.4,4.3c-1.1,1.8-1.6,3.9-1.6,6.3c0,2,0.4,3.7,1.1,5.2c0.7,1.5,1.6,2.8,2.7,3.7c1.1,1,2.5,1.8,4.2,2.5
				c1.7,0.7,3.4,1.2,5,1.6c1.6,0.4,3.5,0.7,5.6,1c3.8,0.5,6.8,1.3,9,2.5c2.2,1.2,3.2,3,3.2,5.4c0,1.9-0.6,3.4-1.9,4.7
				c-1.3,1.3-2.7,2.1-4.5,2.6c-1.7,0.5-3.6,0.7-5.7,0.7c-6.8,0-11.8-2.6-14.9-7.9l-5.7,3.8c3.9,7.2,10.8,10.9,20.6,10.9
				c3.6,0,6.8-0.5,9.6-1.4c2.8-0.9,5.3-2.5,7.2-4.8c2-2.3,3-5.1,3-8.5c0-2.6-0.5-4.8-1.5-6.6c-1-1.8-2.5-3.3-4.5-4.4
				c-2-1.1-3.9-1.9-5.9-2.4c-2-0.5-4.4-1-7.2-1.4c-3.8-0.5-6.7-1.3-8.6-2.3c-2-1-3-2.5-3-4.6c0-2.2,1-4,3.1-5.3s4.7-1.9,8-1.9
				c2.5,0,4.8,0.5,6.9,1.5c2.1,0.9,3.7,2.2,4.9,3.9L300.1,9.6z M217.1,2.9h-5.9v47.8h7.7V16.9l27.1,33.8h5.8V2.9h-7.7v34L217.1,2.9z
				 M199.4,43.2h-27.7V30.3h26.4v-7.1h-26.4V10.3h27.5V2.9h-35.1v47.8h35.3V43.2z M150.9,8.9c-4.9-4.8-10.8-7.2-17.7-7.2
				c-7.8,0-14,2.4-18.4,7.3c-4.5,4.9-6.7,11-6.7,18.2c0,3.3,0.5,6.3,1.5,9.2c1,2.8,2.5,5.4,4.4,7.7c2,2.3,4.6,4.1,7.9,5.5
				c3.3,1.3,7.1,2,11.3,2c7.5,0,13.7-2.8,18.8-8.3V23.7h-20.4v6.8h13.3v9.7c-3.4,2.8-7.3,4.2-11.7,4.2c-5.8,0-10.2-1.7-13.2-5
				c-3-3.3-4.4-7.4-4.4-12.2c0-5.2,1.5-9.6,4.7-13.2c3.2-3.6,7.5-5.3,12.9-5.3c2.3,0,4.6,0.4,6.9,1.3c2.3,0.9,4.3,2.2,6,3.8
				L150.9,8.9z M89.2,33.7H69l10.1-22.8L89.2,33.7z M96.6,50.7h8.1L83.3,2.9h-8.3L53.5,50.7h8.1l4.5-10H92L96.6,50.7z M15.7,10.2
				h10.5c3.6,0,6.7,0.8,9.2,2.4c2.5,1.6,4.3,3.6,5.4,5.9c1.1,2.4,1.7,5,1.8,7.8c0.1,4.6-1.3,8.6-4,12s-6.9,5-12.4,5H15.7V10.2z
				 M8.2,2.9v47.8h18.1c4,0,7.6-0.7,10.8-2.1c3.2-1.4,5.7-3.2,7.6-5.6c1.9-2.3,3.3-4.9,4.3-7.8c1-2.8,1.4-5.8,1.3-8.9
				c0-3.1-0.6-5.9-1.6-8.7c-1-2.7-2.4-5.2-4.3-7.5c-1.9-2.3-4.4-4-7.5-5.4c-3.1-1.3-6.6-2-10.6-2H8.2z"/>
		</g>
	</g>
	<g id="XMLID_67_">
		<g id="XMLID_68_">
			<path id="XMLID_69_" class="st1" d="M282.4,53.3c-10.3,0-17.7-3.9-21.9-11.7l-0.6-1.2L268,35l0.8,1.4c2.8,4.8,7.3,7.1,13.6,7.1
				c2,0,3.8-0.2,5.4-0.6c1.5-0.4,2.7-1.1,3.8-2.2c1-1,1.4-2.2,1.4-3.6c0-1.9-0.8-3.1-2.5-4c-2-1.1-4.8-1.9-8.5-2.3
				c-2.2-0.3-4.2-0.6-5.8-1c-1.6-0.4-3.4-0.9-5.2-1.6c-1.9-0.7-3.5-1.7-4.6-2.7c-1.2-1.1-2.2-2.5-3-4.2c-0.8-1.7-1.2-3.7-1.2-5.9
				c0-2.6,0.6-5,1.9-7.1c1.2-2,2.9-3.7,4.9-4.8c1.9-1.1,4-2,6.3-2.5c2.2-0.6,4.5-0.8,6.9-0.8c9,0,15.5,2.9,19.1,8.8l0.8,1.2
				l-8.2,5.5l-0.8-1.2c-1-1.4-2.4-2.5-4.3-3.3c-1.9-0.9-4.1-1.3-6.4-1.3c-2.9,0-5.4,0.6-7.2,1.7c-1.6,1-2.4,2.3-2.4,4
				c0,1.5,0.7,2.5,2.1,3.2c1.8,0.9,4.6,1.6,8.2,2.1c2.9,0.4,5.4,0.9,7.4,1.5c2.1,0.6,4.2,1.4,6.3,2.6c2.2,1.2,3.9,2.9,5.1,5
				c1.1,2.1,1.7,4.5,1.7,7.3c0,3.8-1.1,7-3.3,9.5c-2.2,2.5-4.8,4.2-7.9,5.3C289.5,52.8,286.1,53.3,282.4,53.3z M263.8,41.4
				c3.7,6,9.8,8.9,18.6,8.9c3.4,0,6.4-0.4,9.1-1.3c2.6-0.8,4.8-2.3,6.6-4.4c1.8-2,2.6-4.5,2.6-7.6c0-2.3-0.5-4.3-1.3-5.9
				c-0.9-1.6-2.2-2.8-3.9-3.8c-1.8-1-3.7-1.8-5.6-2.3c-1.9-0.5-4.3-1-7.1-1.4c-4-0.6-6.9-1.4-9.1-2.4c-2.5-1.2-3.8-3.3-3.8-5.9
				c0-2.7,1.3-5,3.8-6.6c2.3-1.4,5.2-2.2,8.8-2.2c2.7,0,5.3,0.6,7.5,1.6c1.8,0.8,3.4,1.9,4.6,3.2l3.4-2.3C294.8,5,289.6,3,282.2,3
				c-2.1,0-4.2,0.2-6.2,0.7c-2,0.5-3.8,1.2-5.5,2.2c-1.6,0.9-2.9,2.2-3.8,3.8c-1,1.6-1.4,3.4-1.4,5.5c0,1.7,0.3,3.3,0.9,4.6
				c0.6,1.3,1.4,2.4,2.3,3.2c0.9,0.8,2.2,1.6,3.8,2.2c1.7,0.7,3.3,1.2,4.7,1.5c1.5,0.4,3.4,0.7,5.5,0.9c4,0.5,7.2,1.4,9.5,2.7
				c2.6,1.4,4,3.7,4,6.7c0,2.3-0.8,4.2-2.3,5.7c-1.4,1.4-3.2,2.4-5.2,3c-1.8,0.5-3.9,0.7-6.1,0.7c-6.8,0-11.9-2.4-15.3-7.3
				L263.8,41.4z M133.2,53.2c-4.4,0-8.4-0.7-11.9-2.1c-3.5-1.4-6.4-3.4-8.5-5.9c-2.1-2.4-3.7-5.2-4.7-8.2c-1.1-3-1.6-6.3-1.6-9.7
				c0-7.6,2.4-14.1,7.1-19.2c4.7-5.2,11.3-7.8,19.6-7.8c7.3,0,13.6,2.6,18.8,7.7l1.1,1l-6.9,7.1l-1.1-1.1c-1.5-1.5-3.3-2.6-5.4-3.4
				c-2.2-0.8-4.3-1.2-6.4-1.2c-5,0-8.9,1.6-11.8,4.8c-3,3.3-4.4,7.3-4.3,12.2c0,4.5,1.3,8.2,4.1,11.2c2.7,3,6.7,4.5,12.1,4.5
				c3.9,0,7.2-1.1,10.2-3.5V32h-13.3v-9.8h23.4v21.7l-0.4,0.4C147.8,50.2,141.1,53.2,133.2,53.2z M133.2,3.2
				c-7.5,0-13.1,2.2-17.3,6.9c-4.2,4.6-6.3,10.4-6.3,17.2c0,3.1,0.5,6,1.4,8.7c0.9,2.7,2.3,5.1,4.2,7.2c1.8,2.1,4.3,3.8,7.3,5
				c3.1,1.3,6.7,1.9,10.7,1.9c6.9,0,12.6-2.4,17.3-7.4V25.2h-17.4V29h13.3v11.9l-0.5,0.5c-3.6,3-7.9,4.6-12.6,4.6
				c-6.2,0-11.1-1.8-14.3-5.5c-3.2-3.6-4.8-8-4.8-13.2c0-5.6,1.7-10.4,5.1-14.2c3.5-3.9,8.2-5.8,14-5.8c2.4,0,5,0.5,7.5,1.4
				c2,0.8,3.8,1.8,5.4,3.1l2.7-2.8C144.4,5.1,139.3,3.2,133.2,3.2z M253.4,52.2h-8l-24.9-31v31h-10.7V1.4h8.1l24.9,31.2V1.4h10.7
				V52.2z M246.8,49.2h3.6V4.4h-4.7v36.8L216.4,4.4h-3.7v44.8h4.7V12.7L246.8,49.2z M200.9,52.2h-38.3V1.4h38.1v10.4h-27.5v9.9h26.4
				v10.1h-26.4v9.8h27.7V52.2z M165.6,49.2h32.3v-4.5h-27.7V28.8h26.4v-4.1h-26.4V8.8h27.5V4.4h-32.1V49.2z M107,52.2H95.6l-4.6-10
				h-24l-4.5,10H51.2L74,1.4h10.3L107,52.2z M97.6,49.2h4.9L82.3,4.4h-6.4L55.8,49.2h4.8l4.5-10H93L97.6,49.2z M26.3,52.2H6.7V1.4
				h19.6c4.1,0,7.9,0.7,11.1,2.1c3.3,1.4,6,3.4,8.1,5.8c2,2.4,3.5,5,4.6,7.9c1.1,2.9,1.6,6,1.7,9.2c0.1,3.2-0.4,6.4-1.4,9.4
				c-1,3-2.5,5.8-4.5,8.2c-2,2.5-4.8,4.5-8.2,6C34.3,51.5,30.5,52.2,26.3,52.2z M9.7,49.2h16.6c3.8,0,7.2-0.7,10.2-2
				c3-1.3,5.3-3,7.1-5.1c1.8-2.2,3.1-4.6,4-7.3c0.9-2.7,1.3-5.5,1.2-8.4c0-2.9-0.5-5.6-1.5-8.2c-0.9-2.6-2.3-4.9-4.1-7
				c-1.7-2.1-4.1-3.7-7-4.9C33.3,5,30,4.4,26.3,4.4H9.7V49.2z M26.3,44.8h-12V8.7h12c3.9,0,7.2,0.9,10,2.6c2.8,1.7,4.8,4,6,6.6
				c1.2,2.5,1.8,5.4,1.9,8.4c0.1,5-1.4,9.4-4.4,13C36.7,42.9,32.2,44.8,26.3,44.8z M17.2,41.8h9c5,0,8.7-1.5,11.2-4.5
				c2.6-3.1,3.8-6.7,3.7-11c-0.1-2.6-0.6-5-1.6-7.2c-1-2.1-2.6-3.9-4.9-5.3c-2.3-1.4-5.1-2.2-8.4-2.2h-9V41.8z M91.5,35.2H66.7
				L79.1,7.2L91.5,35.2z M71.3,32.2h15.6l-7.8-17.6L71.3,32.2z"/>
		</g>
	</g>
	<g id="XMLID_65_">
		<path id="XMLID_4_" class="st1" d="M273.2,89c0.4,1.3,0.3,3.3-0.1,3.9c-1.1,1.8-0.7,3.6,0.1,4.4c0.8,0.8,2,1.2,3.6,1.2
			c1.6,0,3.1-0.6,4.3-1.7c1.3-1.1,1.9-2.5,1.9-4.3c0-2.9-1.7-5.4-5-7.5c-1.5-0.9-3.1-1.6-4.9-2.1V89z"/>
	</g>
	<g id="XMLID_58_">
		<g id="XMLID_63_">
			<path id="XMLID_3_" class="st1" d="M255.8,150.2c-0.8-0.4-1.7-0.6-2.8-0.6c-1.5,0-2.8,0.5-4,1.6c-1.2,1.1-1.8,2.5-1.8,4.3
				c0,3.1,1.6,5.6,4.9,7.7c1.2,0.7,2.4,1.3,3.8,1.8V150.2z"/>
		</g>
		<g id="XMLID_59_">
			<path id="XMLID_60_" class="st1" d="M283.4,133.8c1.7-2.3,2.6-5.3,2.6-8.9c0-2.8-0.7-5.5-2-8c-1.3-2.5-3.1-4.6-5.3-6.4
				c-2.2-1.8-5.7-4.1-10.4-7.1c-5-3.1-14.5-5.3-15.8-6.7c-1.3-1.3-1.1-3.3-0.9-4.5c0.4-1.8,1.6-2.7,3-3.8c0.2-0.2,0.6-0.3,1.1-0.5
				v-4.5c-2,0.6-3.9,1.5-5.3,2.5c-3.8,2.7-5.6,6.3-5.6,10.7c0,2.5,0.7,4.9,2,7.1c1.3,2.2,5.5,4.2,8.1,6.1c-2.1,0.5-3.9,1.2-5.4,2.1
				c-1.5,0.9-2.9,2.3-4,4.2c-1.1,1.9-1.7,4.1-1.7,6.7c0,2.7,0.6,5.2,1.9,7.6c1.3,2.4,3.1,4.6,5.5,6.6c2.4,2,6.3,4.8,11.8,8.4
				c4.7,3.1,8.2,5.4,9.1,6.7c0.9,1.4,1.3,2.7,1.3,3.9c0,0.2,0,0.4-0.1,0.7v7.8c1.4-0.6,2.7-1.2,4-2.1c3.8-2.6,5.7-6.1,5.7-10.4
				c0-2.7-0.6-5.1-1.8-7.3c-1.2-2.2-3.1-4.2-5.5-5.9C279.1,137.8,281.7,136.1,283.4,133.8z M275.6,133.2c-0.9,0.9-2,1.3-3.3,1.3
				c-2.4,0-6.3-2-11.6-6.1c-5.3-4.1-8-7.5-8-10.4c0-1.2,0.5-2.2,1.6-3.1c1.1-0.9,2.2-1.3,3.3-1.3c2.5,0,6.4,2,11.6,6
				c5.2,4,7.8,7.5,7.8,10.5C277,131.3,276.6,132.4,275.6,133.2z"/>
		</g>
	</g>
</g>
</svg>
